<svg width="315" height="101" viewBox="0 0 315 101" fill="none" xmlns="http://www.w3.org/2000/svg">
<rect width="101" height="13.2036" transform="matrix(0 -1 -1 0 39.6108 101)" fill="white"/>
<rect width="101" height="13.2036" transform="matrix(0 -1 -1 0 92.4248 101)" fill="white"/>
<rect width="101" height="1.88623" transform="matrix(0 -1 -1 0 20.7485 101)" fill="white"/>
<rect width="101" height="1.88623" transform="matrix(0 -1 -1 0 56.5869 101)" fill="white"/>
<rect width="101" height="1.88623" transform="matrix(0 -1 -1 0 64.1318 101)" fill="white"/>
<rect width="101" height="1.88623" transform="matrix(0 -1 -1 0 135.808 101)" fill="white"/>
<rect width="101" height="3.77246" transform="matrix(0 -1 -1 0 13.2036 101)" fill="white"/>
<rect width="101" height="3.77246" transform="matrix(0 -1 -1 0 73.563 101)" fill="white"/>
<rect width="101" height="3.77246" transform="matrix(0 -1 -1 0 145.239 101)" fill="white"/>
<rect width="101" height="3.77246" transform="matrix(0 -1 -1 0 154.67 101)" fill="white"/>
<rect width="101" height="3.77246" transform="matrix(0 -1 -1 0 115.06 101)" fill="white"/>
<rect width="101" height="7.54491" transform="matrix(0 -1 -1 0 105.629 101)" fill="white"/>
<rect width="101" height="7.54491" transform="matrix(0 -1 -1 0 128.263 101)" fill="white"/>
<rect width="101" height="3.77246" transform="matrix(0 -1 -1 0 49.0415 101)" fill="white"/>
<rect width="101" height="3.77246" transform="matrix(0 -1 -1 0 3.77246 101)" fill="white"/>
<rect width="101" height="13.2036" transform="matrix(0 -1 -1 0 199.94 101)" fill="white"/>
<rect width="101" height="13.2036" transform="matrix(0 -1 -1 0 252.754 101)" fill="white"/>
<rect width="101" height="1.88623" transform="matrix(0 -1 -1 0 181.078 101)" fill="white"/>
<rect width="101" height="1.88623" transform="matrix(0 -1 -1 0 216.916 101)" fill="white"/>
<rect width="101" height="1.88623" transform="matrix(0 -1 -1 0 224.461 101)" fill="white"/>
<rect width="101" height="1.88623" transform="matrix(0 -1 -1 0 296.138 101)" fill="white"/>
<rect width="101" height="3.77246" transform="matrix(0 -1 -1 0 173.533 101)" fill="white"/>
<rect width="101" height="3.77246" transform="matrix(0 -1 -1 0 233.892 101)" fill="white"/>
<rect width="101" height="3.77246" transform="matrix(0 -1 -1 0 305.569 101)" fill="white"/>
<rect width="101" height="3.77246" transform="matrix(0 -1 -1 0 315 101)" fill="white"/>
<rect width="101" height="3.77246" transform="matrix(0 -1 -1 0 275.389 101)" fill="white"/>
<rect width="101" height="7.54491" transform="matrix(0 -1 -1 0 265.958 101)" fill="white"/>
<rect width="101" height="7.54491" transform="matrix(0 -1 -1 0 288.593 101)" fill="white"/>
<rect width="101" height="3.77246" transform="matrix(0 -1 -1 0 209.371 101)" fill="white"/>
<rect width="101" height="3.77246" transform="matrix(0 -1 -1 0 164.102 101)" fill="white"/>
</svg>
